<?xml version="1.0" standalone="no"?>
<!DOCTYPE svg PUBLIC "-//W3C//DTD SVG 20010904//EN"
 "http://www.w3.org/TR/2001/REC-SVG-20010904/DTD/svg10.dtd">
<svg version="1.0" xmlns="http://www.w3.org/2000/svg"
 width="100%" height="100%" viewBox="0 0 5369.000000 2176.000000"
 preserveAspectRatio="xMidYMid meet">
<metadata>
Created by potrace 1.12, written by Peter Selinger 2001-2015
</metadata>
<g transform="translate(0.000000,2176.000000) scale(0.100000,-0.100000)"
fill="#f00303" stroke="none">
<path d="M3760 21690 c-1011 -56 -1752 -292 -2260 -718 -386 -323 -657 -734
-764 -1159 -142 -558 -74 -1167 178 -1615 217 -384 586 -720 1009 -917 558
-261 1519 -540 2901 -841 744 -162 951 -253 1054 -463 113 -229 64 -533 -116
-728 -190 -206 -525 -334 -1017 -391 -167 -19 -619 -16 -780 6 -245 33 -460
96 -640 188 -206 105 -388 273 -520 477 -90 139 -195 390 -220 524 -4 21 -13
41 -20 43 -12 5 -2195 -313 -2203 -320 -7 -7 39 -158 90 -296 301 -815 930
-1456 1778 -1810 610 -255 1362 -373 2270 -357 179 3 384 11 455 17 861 71
1552 283 2049 628 310 215 610 523 801 822 152 236 263 529 316 825 27 152 37
490 20 657 -35 339 -140 652 -300 896 -209 317 -484 540 -943 761 -497 240
-1072 420 -2023 631 -1076 240 -1727 429 -1924 561 -80 53 -167 148 -197 214
-110 240 3 509 272 647 263 136 622 198 1150 198 418 0 674 -41 923 -149 304
-131 563 -419 666 -741 10 -30 21 -59 25 -63 7 -8 2059 351 2073 363 4 4 -9
53 -29 111 -159 459 -379 823 -674 1119 -524 523 -1203 778 -2310 866 -223 17
-875 26 -1090 14z"/>
<path d="M21670 21690 c-729 -42 -1310 -174 -1771 -405 -221 -110 -388 -225
-567 -388 -523 -477 -771 -1051 -749 -1737 11 -354 78 -627 222 -909 103 -201
215 -350 391 -521 131 -127 214 -194 360 -290 456 -301 1413 -606 3049 -970
513 -114 681 -157 819 -210 116 -45 229 -106 272 -148 48 -47 109 -141 128
-200 38 -112 38 -290 1 -415 -99 -335 -491 -557 -1115 -633 -178 -22 -619 -25
-785 -6 -449 52 -764 190 -1015 441 -194 195 -321 426 -406 739 -9 34 -22 62
-29 62 -16 0 -2199 -321 -2201 -323 -6 -6 73 -244 118 -359 227 -584 635
-1082 1183 -1443 601 -397 1319 -602 2295 -656 236 -13 791 -7 1000 11 932 79
1612 299 2137 692 508 380 853 866 991 1398 53 205 66 319 66 585 0 178 -4
271 -17 359 -81 546 -338 978 -759 1282 -334 240 -861 470 -1513 659 -278 81
-530 144 -960 240 -970 217 -1583 386 -1837 508 -226 108 -333 241 -345 432
-21 315 244 537 749 629 245 44 334 51 703 51 361 0 426 -5 625 -47 373 -79
656 -266 837 -553 43 -67 117 -226 139 -297 10 -32 22 -58 27 -58 14 0 2039
360 2059 366 15 5 12 19 -28 134 -163 468 -387 829 -708 1137 -351 338 -745
545 -1297 682 -283 70 -660 126 -1024 151 -205 15 -855 20 -1045 10z"/></g><g transform="translate(0.000000,2176.000000) scale(0.100000,-0.100000)"
fill="#000000" stroke="none">
<path d="M30590 21689 c-995 -58 -1734 -302 -2245 -741 -535 -460 -805 -1028
-806 -1698 0 -397 65 -693 222 -1001 200 -392 574 -745 1014 -958 535 -259
1433 -522 2895 -846 790 -176 974 -255 1081 -467 88 -173 75 -440 -29 -617
-64 -110 -208 -233 -362 -311 -298 -151 -800 -228 -1306 -200 -549 30 -903
165 -1189 454 -190 192 -317 423 -401 734 -14 51 -20 62 -38 62 -30 0 -2187
-318 -2192 -323 -8 -8 68 -243 122 -377 229 -562 597 -1023 1100 -1376 594
-416 1332 -642 2299 -704 206 -13 745 -13 950 0 749 48 1348 191 1836 438 702
356 1241 983 1413 1644 56 219 70 334 70 598 1 190 -3 272 -18 365 -62 403
-199 712 -445 998 -168 196 -413 373 -746 537 -496 245 -1089 434 -1990 635
-955 213 -1515 363 -1819 489 -141 58 -206 98 -282 173 -92 91 -133 190 -134
318 0 137 51 246 166 354 151 140 404 227 809 278 201 25 770 25 935 0 227
-34 425 -94 569 -173 264 -145 472 -399 570 -696 13 -38 28 -68 34 -68 7 0
475 82 1040 182 l1029 183 -5 31 c-7 40 -98 284 -148 394 -276 612 -744 1085
-1329 1343 -442 194 -1008 308 -1730 347 -211 11 -739 11 -940 -1z"/>
<path d="M39865 21694 c-22 -2 -89 -9 -150 -15 -704 -69 -1314 -301 -1850
-702 -287 -215 -580 -514 -781 -797 -432 -607 -659 -1288 -746 -2235 -20 -213
-16 -826 5 -1045 84 -841 303 -1492 698 -2075 312 -460 718 -817 1216 -1071
443 -225 912 -355 1523 -421 210 -22 913 -26 1110 -5 631 67 1130 215 1576
467 246 139 453 296 663 500 285 278 482 551 675 935 94 187 204 445 194 456
-6 5 -2149 354 -2179 354 -12 0 -27 -29 -53 -105 -201 -581 -525 -898 -1031
-1007 -117 -25 -430 -36 -570 -19 -393 46 -714 197 -993 466 -239 230 -389
485 -486 822 -53 186 -96 466 -96 629 l0 64 2765 0 2765 0 0 283 c0 912 -144
1731 -416 2369 -196 461 -460 847 -792 1157 -280 262 -516 427 -842 589 -416
208 -841 326 -1385 387 -132 15 -721 29 -820 19z m668 -1639 c295 -45 518
-143 755 -333 392 -314 597 -779 636 -1444 l5 -88 -1649 0 -1650 0 0 108 c0
293 72 622 189 867 137 288 380 550 656 708 154 89 376 162 560 186 118 15
385 12 498 -4z"/>
<path d="M49105 21690 c-912 -67 -1654 -333 -2250 -807 -420 -333 -733 -723
-970 -1208 -235 -480 -364 -972 -427 -1625 -18 -184 -18 -941 0 -1110 56 -527
141 -908 291 -1305 48 -126 180 -402 249 -520 379 -654 965 -1173 1658 -1470
384 -165 782 -263 1284 -317 168 -18 877 -18 1055 0 426 43 775 114 1101 226
774 265 1362 754 1773 1473 60 106 162 317 216 448 53 129 159 448 199 602
l34 132 -26 5 c-26 6 -2088 343 -2126 349 -16 2 -22 -13 -42 -103 -69 -310
-185 -608 -312 -805 -255 -397 -699 -615 -1252 -615 -621 0 -1113 241 -1438
703 -110 156 -227 441 -291 707 -100 412 -143 1014 -111 1540 62 992 353 1552
967 1859 337 169 817 224 1230 141 508 -102 867 -421 1032 -915 22 -66 48
-160 58 -209 10 -49 23 -90 29 -93 5 -2 490 80 1077 182 587 102 1071 185
1077 185 17 0 12 23 -36 167 -236 702 -615 1272 -1104 1659 -503 398 -1130
624 -1970 709 -178 19 -801 28 -975 15z"/></g><g transform="translate(0.000000,2176.000000) scale(0.100000,-0.100000)"
fill="#f00303" stroke="none">
<path d="M9050 21514 c0 -3 712 -1808 1581 -4012 870 -2204 1584 -4016 1586
-4027 5 -24 -61 -227 -123 -378 -150 -367 -381 -718 -574 -872 -296 -236 -666
-327 -1208 -296 -212 13 -423 37 -616 71 -60 11 -110 19 -112 17 -7 -6 192
-1647 201 -1656 6 -5 92 -23 191 -40 889 -152 1778 -110 2437 115 376 129 653
299 912 559 232 232 387 459 587 860 134 266 232 506 507 1235 185 492 2997
7868 3206 8413 7 16 -51 17 -1136 17 l-1144 0 -975 -2851 c-869 -2543 -976
-2848 -986 -2824 -6 14 -456 1297 -1000 2851 l-989 2824 -1172 0 c-645 0
-1173 -3 -1173 -6z"/></g><g transform="translate(0.000000,2176.000000) scale(0.100000,-0.100000)"
fill="#000000" stroke="none">
<path d="M33702 8263 l3 -178 185 0 185 0 3 178 2 177 -190 0 -190 0 2 -177z"/>
<path d="M34372 8263 l3 -178 185 0 185 0 3 178 2 177 -190 0 -190 0 2 -177z"/>
<path d="M48592 8430 c-153 -28 -272 -103 -324 -204 -29 -56 -47 -173 -48
-303 l0 -113 -120 0 -120 0 0 -160 0 -160 120 0 120 0 0 -615 0 -615 220 0
220 0 0 615 0 615 160 0 160 0 0 160 0 160 -160 0 -160 0 0 98 c1 129 19 172
84 197 38 15 63 17 139 11 50 -4 105 -8 121 -9 l29 -2 29 139 c16 76 27 140
25 143 -3 2 -47 13 -98 24 -108 23 -319 33 -397 19z"/>
<path d="M853 8383 c-4 -10 -197 -479 -430 -1043 -233 -563 -423 -1037 -423
-1052 l0 -28 233 0 232 0 91 238 92 237 457 0 458 0 96 -235 96 -235 249 -3
c233 -2 248 -1 243 15 -4 15 -658 1559 -849 2006 l-50 117 -244 0 c-224 0
-245 -1 -251 -17z m404 -881 l151 -387 -300 -3 c-166 -1 -303 0 -306 2 -5 6
291 776 298 776 3 0 73 -175 157 -388z"/>
<path d="M2530 7330 l0 -1070 220 0 220 0 0 1070 0 1070 -220 0 -220 0 0
-1070z"/>
<path d="M10541 7421 c-222 -539 -421 -1020 -442 -1070 l-38 -91 245 2 246 3
91 238 91 237 456 0 457 0 47 -117 c26 -65 70 -173 98 -240 l50 -123 250 0
c137 0 248 4 246 9 -1 4 -205 486 -453 1069 l-450 1062 -245 0 -245 0 -404
-979z m799 84 c78 -198 145 -368 147 -377 5 -17 -14 -18 -302 -18 -242 0 -306
3 -302 13 6 15 273 705 288 744 8 22 12 25 19 13 4 -8 72 -177 150 -375z"/>
<path d="M13690 8019 l0 -381 -52 44 c-142 119 -319 179 -483 162 -319 -32
-536 -227 -612 -550 -28 -121 -25 -397 5 -517 67 -268 234 -454 472 -528 106
-34 265 -34 365 -1 108 36 183 81 262 156 l73 69 0 -107 0 -106 205 0 205 0 0
1070 0 1070 -220 0 -220 0 0 -381z m-266 -504 c113 -29 195 -111 236 -234 31
-91 39 -303 16 -414 -30 -147 -111 -255 -223 -297 -81 -31 -206 -25 -278 12
-96 50 -165 146 -191 267 -18 86 -18 319 0 386 61 227 231 334 440 280z"/>
<path d="M15860 8210 l0 -190 218 2 217 3 3 188 2 187 -220 0 -220 0 0 -190z"/>
<path d="M19670 7728 c0 -853 9 -960 91 -1128 86 -173 269 -304 494 -353 87
-18 131 -21 335 -21 258 0 314 8 457 64 204 78 343 228 392 422 36 138 41 270
41 990 l0 698 -230 0 -230 0 0 -712 c0 -392 -5 -746 -10 -786 -12 -93 -37
-149 -90 -202 -87 -87 -239 -124 -418 -102 -216 28 -340 142 -363 336 -4 39
-8 385 -9 769 l0 697 -230 0 -230 0 0 -672z"/>
<path d="M23970 8210 l0 -190 220 0 220 0 0 190 0 190 -220 0 -220 0 0 -190z"/>
<path d="M31560 8210 l0 -190 218 2 217 3 3 188 2 187 -220 0 -220 0 0 -190z"/>
<path d="M37380 7330 l0 -1070 230 0 230 0 0 319 0 319 143 139 c78 77 163
159 188 182 l47 41 307 -496 c170 -273 313 -498 319 -500 6 -2 140 -3 298 -2
l287 3 -448 650 -449 650 277 269 c152 149 344 337 426 418 l150 148 -310 -1
-310 0 -460 -474 -460 -474 -3 475 -2 474 -230 0 -230 0 0 -1070z"/>
<path d="M39700 7330 l0 -1070 220 0 220 0 0 1070 0 1070 -220 0 -220 0 0
-1070z"/>
<path d="M32708 8236 l-218 -118 0 -154 0 -154 -100 0 -100 0 2 -162 3 -163
98 -3 97 -3 0 -362 c1 -630 17 -721 138 -814 73 -56 165 -78 317 -77 124 1
192 11 291 46 l30 11 -18 155 c-10 85 -20 157 -22 159 -2 2 -15 -1 -29 -6 -15
-6 -55 -15 -90 -21 -53 -10 -70 -9 -100 3 -73 31 -72 22 -75 489 l-4 418 151
0 151 0 0 165 0 165 -150 0 -150 0 -2 273 -3 272 -217 -119z"/>
<path d="M52738 8237 l-218 -119 0 -154 0 -154 -100 0 -100 0 2 -162 3 -163
96 -3 97 -3 5 -467 c5 -492 9 -528 55 -618 83 -161 366 -220 646 -134 l69 22
-7 71 c-3 40 -11 112 -18 160 -9 75 -13 87 -27 82 -9 -4 -47 -13 -86 -22 -82
-17 -127 -8 -166 33 l-24 26 -3 424 -3 424 150 0 151 0 0 165 0 165 -150 0
-150 0 -2 273 -3 272 -217 -118z"/>
<path d="M35600 8237 l-205 -112 -3 -158 -3 -157 -99 0 -100 0 0 -165 0 -165
99 0 100 0 4 -482 c4 -525 6 -544 60 -625 40 -59 93 -95 182 -125 58 -19 91
-23 195 -23 120 1 180 9 282 42 47 14 48 15 43 51 -3 20 -12 90 -19 155 -8 65
-16 120 -18 122 -2 2 -37 -6 -78 -16 -92 -24 -143 -18 -182 21 l-28 28 0 426
0 426 145 0 145 0 0 165 0 165 -145 0 -145 0 0 270 c0 210 -3 270 -12 270 -7
-1 -105 -51 -218 -113z"/>
<path d="M4272 7839 c-146 -19 -273 -84 -374 -192 l-58 -60 0 111 0 112 -205
0 -205 0 2 -1072 3 -1073 218 -3 217 -2 0 390 c0 214 4 390 8 390 4 0 24 -16
43 -36 56 -58 175 -132 252 -156 107 -34 271 -32 384 6 256 84 432 312 473
613 17 127 8 343 -19 448 -67 257 -252 450 -489 509 -79 20 -175 26 -250 15z
m114 -354 c152 -75 225 -251 210 -507 -13 -225 -87 -353 -235 -409 -78 -29
-195 -23 -267 14 -150 77 -224 230 -224 467 0 210 54 332 181 417 88 58 237
66 335 18z"/>
<path d="M5948 7840 c-241 -30 -456 -177 -560 -385 -63 -125 -90 -258 -89
-440 0 -377 173 -647 476 -744 252 -81 544 -61 736 50 123 71 218 176 275 305
18 40 21 56 12 58 -24 8 -420 68 -422 64 -1 -2 -10 -24 -20 -51 -26 -69 -94
-133 -163 -153 -119 -35 -255 0 -341 86 -64 64 -90 122 -106 238 l-6 42 545 0
545 0 0 103 c0 113 -21 250 -52 342 -72 216 -238 384 -443 448 -114 36 -274
51 -387 37z m266 -340 c91 -46 151 -128 175 -238 21 -102 56 -92 -314 -92
l-325 0 0 28 c0 82 47 190 107 247 89 84 248 109 357 55z"/>
<path d="M8080 7840 c-148 -19 -274 -80 -386 -185 l-64 -60 0 107 0 108 -205
0 -205 0 0 -775 0 -775 220 0 220 0 0 448 c0 463 6 553 41 631 63 143 247 224
403 177 67 -20 110 -58 143 -123 l28 -58 3 -537 3 -538 219 0 220 0 0 558 c-1
605 -5 666 -55 768 -34 70 -96 136 -168 178 -104 62 -279 93 -417 76z"/>
<path d="M15290 7840 c-103 -18 -179 -69 -257 -175 l-48 -65 -3 105 -3 105
-204 0 -205 0 0 -775 0 -775 219 0 219 0 5 438 c5 459 11 520 55 623 28 63 74
114 125 134 78 31 212 17 285 -31 13 -9 25 -14 26 -12 2 2 33 82 70 178 76
201 79 183 -42 223 -88 28 -177 38 -242 27z"/>
<path d="M17273 7840 c-101 -11 -217 -42 -291 -78 -84 -41 -173 -136 -221
-235 -45 -93 -57 -127 -43 -127 6 0 88 -13 184 -30 95 -16 180 -30 190 -30 9
0 20 12 26 28 19 52 70 109 119 133 43 21 62 24 173 24 113 0 130 -2 175 -25
60 -30 83 -66 97 -156 8 -53 7 -68 -3 -75 -25 -15 -166 -49 -386 -94 -324 -66
-421 -104 -514 -202 -200 -211 -133 -556 133 -688 227 -111 526 -76 743 88 33
25 62 44 65 42 4 -2 17 -38 30 -79 l24 -76 218 0 218 0 -25 51 c-15 28 -36 85
-47 127 -19 71 -22 114 -28 562 -6 469 -7 487 -29 555 -19 57 -33 79 -80 125
-71 69 -165 116 -281 140 -105 22 -333 32 -447 20z m417 -882 c-1 -109 -19
-236 -38 -274 -72 -139 -294 -214 -430 -145 -43 22 -98 80 -113 118 -24 64 -1
148 54 194 35 30 117 57 285 94 86 19 171 39 187 44 52 16 55 14 55 -31z"/>
<path d="M22852 7840 c-88 -12 -158 -34 -228 -71 -73 -39 -93 -55 -166 -126
l-58 -56 0 111 0 112 -205 0 -205 0 0 -775 0 -775 220 0 220 0 0 415 c0 229 5
459 10 513 18 164 75 253 200 311 46 22 69 26 145 26 103 0 149 -18 203 -79
64 -73 65 -85 70 -663 l3 -523 221 0 220 0 -4 578 c-4 550 -6 581 -26 655 -26
96 -59 152 -123 212 -110 103 -317 159 -497 135z"/>
<path d="M27211 7840 c-316 -43 -544 -251 -623 -565 -29 -117 -32 -371 -5
-479 74 -296 246 -475 527 -548 120 -31 367 -31 483 0 159 43 264 108 359 219
56 66 126 199 112 212 -5 4 -90 21 -189 36 -99 15 -192 29 -206 32 -23 4 -27
0 -43 -40 -22 -58 -78 -123 -129 -149 -23 -11 -69 -23 -103 -26 -198 -15 -356
119 -380 323 l-7 55 547 0 546 0 0 73 c0 39 -7 119 -15 177 -42 314 -185 520
-433 624 -117 49 -310 73 -441 56z m273 -344 c99 -48 157 -139 175 -270 l8
-56 -325 0 -325 0 6 63 c13 138 93 242 220 283 66 22 174 13 241 -20z"/>
<path d="M29183 7840 c-102 -21 -176 -73 -258 -182 l-45 -60 0 106 0 106 -205
0 -205 0 0 -775 0 -775 219 0 219 0 5 448 c3 252 9 467 15 492 44 193 122 272
268 272 61 0 84 -5 139 -31 l66 -30 9 22 c5 12 36 92 69 177 l59 155 -44 23
c-83 43 -232 68 -311 52z"/>
<path d="M30205 7838 c-100 -11 -210 -40 -284 -76 -73 -35 -179 -140 -214
-212 -77 -159 -39 -362 88 -479 91 -82 238 -139 550 -211 254 -59 297 -72 328
-100 26 -23 30 -34 29 -75 0 -59 -23 -92 -83 -122 -63 -33 -150 -46 -259 -40
-108 6 -175 29 -228 80 -35 33 -82 115 -82 142 0 8 -8 15 -17 15 -33 -1 -415
-58 -420 -64 -10 -10 29 -106 66 -163 52 -80 157 -174 244 -216 260 -128 694
-129 937 -1 192 101 290 262 277 461 -11 182 -94 279 -312 366 -84 33 -148 50
-465 126 -219 52 -290 89 -290 152 0 41 43 85 103 105 39 14 84 18 182 19 115
0 136 -3 180 -23 63 -29 91 -55 121 -113 l23 -46 193 33 c106 19 196 34 201
34 28 0 -36 139 -95 207 -108 125 -237 180 -473 203 -125 11 -186 11 -300 -2z"/>
<path d="M34105 7843 c-149 -12 -289 -50 -370 -101 -57 -36 -140 -125 -173
-186 -30 -56 -66 -145 -61 -151 5 -4 360 -65 380 -65 8 0 23 18 33 41 50 112
115 144 291 144 108 0 125 -3 170 -25 67 -34 97 -89 93 -175 l-3 -59 -60 -18
c-33 -11 -168 -41 -300 -68 -343 -71 -426 -102 -526 -197 -131 -125 -164 -334
-79 -503 87 -172 296 -271 540 -257 151 9 284 59 405 150 33 25 62 44 65 42 4
-2 17 -38 30 -79 l24 -76 213 0 c117 0 213 2 213 5 0 3 -11 32 -25 65 -56 132
-57 149 -65 670 -6 466 -7 488 -29 553 -40 122 -170 224 -332 262 -113 26
-307 39 -434 28z m363 -980 c-3 -117 -7 -144 -25 -178 -52 -98 -188 -174 -314
-175 -166 -1 -292 167 -218 289 43 72 94 94 327 146 86 19 171 39 187 44 17 5
34 10 38 10 5 1 7 -61 5 -136z"/>
<path d="M41113 7840 c-256 -27 -421 -128 -511 -313 -66 -135 -80 -119 131
-155 101 -18 190 -32 199 -32 8 0 23 18 33 41 24 53 87 114 133 131 22 8 83
13 152 13 179 0 246 -36 269 -145 20 -95 17 -106 -36 -124 -78 -25 -198 -53
-370 -85 -268 -52 -382 -95 -475 -180 -71 -65 -114 -148 -128 -247 -43 -311
215 -543 580 -521 152 9 280 57 408 152 35 25 65 45 66 43 1 -2 12 -37 26 -78
l25 -75 217 -3 217 -2 -24 53 c-14 30 -35 89 -47 133 -21 75 -22 100 -23 529
-2 490 -8 552 -60 640 -57 98 -180 173 -332 204 -108 23 -335 33 -450 21z
m414 -960 c-7 -146 -19 -188 -69 -245 -123 -140 -350 -164 -460 -48 -78 82
-76 189 6 260 42 38 107 59 330 108 87 19 161 37 164 40 3 3 12 5 20 5 13 0
14 -18 9 -120z"/>
<path d="M42955 7844 c-195 -25 -320 -87 -443 -218 -67 -72 -129 -188 -156
-291 -9 -33 -21 -113 -28 -177 -30 -290 45 -538 211 -708 129 -131 238 -179
421 -187 198 -9 332 41 463 170 l69 68 -4 -193 c-3 -175 -5 -197 -25 -234 -50
-95 -132 -128 -318 -129 -174 0 -243 32 -261 124 -4 19 -13 31 -23 31 -9 0
-110 11 -226 25 -288 34 -258 40 -253 -53 8 -147 94 -275 236 -350 137 -73
409 -112 651 -92 367 30 558 160 626 426 30 118 35 257 35 1002 l0 752 -205 0
-205 0 0 -106 0 -106 -56 57 c-75 76 -161 130 -253 159 -75 23 -197 37 -256
30z m257 -325 c147 -31 249 -152 278 -331 22 -138 4 -302 -45 -398 -35 -69
-104 -136 -173 -168 -48 -22 -71 -27 -147 -27 -79 0 -97 4 -147 28 -149 73
-216 231 -206 481 6 132 32 219 87 292 83 110 208 153 353 123z"/>
<path d="M44913 7839 c-141 -16 -290 -83 -393 -176 -170 -154 -250 -359 -250
-642 0 -169 25 -287 84 -406 91 -183 203 -281 391 -344 155 -51 303 -63 475
-36 167 25 271 73 383 175 87 80 198 264 165 274 -7 3 -92 16 -188 31 -96 15
-187 29 -202 32 -25 5 -29 1 -52 -50 -52 -119 -149 -174 -286 -165 -169 12
-294 136 -318 316 l-9 62 544 0 c488 0 544 2 550 16 9 25 -15 261 -37 353 -39
161 -105 278 -215 378 -115 106 -253 164 -436 183 -111 11 -103 11 -206 -1z
m271 -338 c102 -50 167 -149 182 -276 l7 -55 -327 0 c-263 0 -326 3 -326 13 0
37 24 136 42 172 24 49 82 111 123 133 92 48 215 53 299 13z"/>
<path d="M47049 7840 c-142 -17 -275 -82 -385 -186 l-64 -62 0 109 0 109 -205
0 -205 0 0 -775 0 -775 220 0 220 0 0 439 c0 451 7 563 39 637 80 181 337 254
489 137 89 -68 101 -161 102 -795 l0 -418 216 0 215 0 -3 598 c-3 577 -4 599
-25 659 -26 78 -62 139 -105 180 -113 108 -320 166 -509 143z"/>
<path d="M51928 7840 c-98 -17 -193 -86 -270 -197 l-33 -48 -3 108 -3 107
-204 0 -205 0 0 -775 0 -775 220 0 220 0 0 313 c0 327 12 565 32 655 18 84 67
172 113 204 74 52 192 54 300 4 48 -22 54 -23 60 -8 55 138 124 335 120 342
-16 25 -245 87 -293 79 -4 -1 -28 -5 -54 -9z"/>
<path d="M15860 7035 l0 -775 220 0 220 0 0 775 0 775 -220 0 -220 0 0 -775z"/>
<path d="M23970 7035 l0 -775 220 0 220 0 0 775 0 775 -220 0 -220 0 0 -775z"/>
<path d="M24680 7806 c0 -2 148 -350 328 -772 l329 -769 199 -3 199 -2 250
592 c137 326 284 675 326 776 l77 182 -225 -2 -226 -3 -148 -375 c-82 -206
-172 -440 -200 -520 -27 -79 -51 -146 -53 -148 -2 -2 -20 45 -40 105 -19 59
-109 296 -198 525 l-163 418 -227 0 c-126 0 -228 -2 -228 -4z"/>
<path d="M31560 7035 l0 -775 220 0 220 0 0 775 0 775 -220 0 -220 0 0 -775z"/>
<path d="M49252 7228 c4 -569 5 -585 27 -657 41 -138 114 -225 235 -285 244
-120 563 -67 759 125 l67 66 0 -108 0 -109 205 0 205 0 0 775 0 775 -219 0
-219 0 -4 -502 c-5 -588 -3 -575 -96 -668 -75 -74 -141 -100 -255 -100 -58 0
-94 6 -122 19 -50 23 -110 88 -126 138 -9 28 -14 181 -16 576 l-4 537 -220 0
-220 0 3 -582z"/>
<path d="M9150 7035 l0 -205 425 0 425 0 0 205 0 205 -425 0 -425 0 0 -205z"/>
<path d="M18530 7035 l0 -205 425 0 425 0 0 205 0 205 -425 0 -425 0 0 -205z"/>
<path d="M1320 4713 c-159 -17 -354 -68 -479 -124 -149 -68 -304 -196 -395
-326 -60 -86 -112 -204 -142 -319 -23 -91 -25 -111 -21 -249 6 -174 23 -251
87 -383 52 -110 110 -189 202 -278 176 -172 397 -272 878 -399 511 -135 618
-174 714 -265 69 -65 98 -130 103 -230 11 -179 -93 -337 -282 -430 -114 -56
-208 -74 -395 -73 -174 0 -257 17 -378 74 -101 48 -225 176 -279 289 -41 84
-73 182 -90 270 -9 44 -10 45 -43 42 -79 -5 -644 -63 -647 -66 -1 -1 4 -43 12
-92 104 -645 470 -1018 1089 -1109 345 -50 754 -16 1025 86 268 100 453 266
576 514 74 147 105 271 112 440 17 390 -116 687 -401 899 -162 120 -380 204
-849 326 -616 161 -767 253 -767 465 0 149 107 257 315 317 72 21 100 23 275
23 184 -1 199 -2 275 -28 183 -61 285 -180 338 -394 l20 -83 56 0 c41 0 621
27 639 30 7 1 0 86 -13 170 -30 183 -95 337 -202 477 -184 242 -458 377 -858
423 -84 9 -397 11 -475 3z"/>
<path d="M19905 4714 c-22 -3 -89 -14 -148 -25 -379 -70 -650 -256 -792 -544
-222 -449 -59 -996 372 -1250 178 -106 343 -165 788 -284 453 -120 560 -164
650 -264 130 -143 105 -376 -57 -537 -103 -102 -229 -152 -430 -172 -90 -9
-143 -9 -217 0 -347 41 -542 223 -632 591 l-22 91 -36 -5 c-20 -3 -151 -17
-291 -30 -140 -14 -277 -28 -303 -31 l-48 -6 6 -47 c48 -346 171 -618 368
-816 192 -191 406 -291 737 -342 158 -24 509 -24 668 0 438 68 716 235 893
539 119 203 168 450 140 697 -31 267 -122 456 -300 624 -183 171 -409 269
-958 411 -298 78 -406 113 -529 171 -159 74 -227 161 -226 291 1 153 102 253
319 316 68 20 101 23 263 23 202 0 259 -10 368 -62 118 -58 209 -186 252 -357
11 -44 22 -82 25 -84 5 -5 516 15 628 24 l69 6 -7 72 c-43 454 -297 780 -715
920 -181 60 -303 78 -565 81 -126 2 -248 1 -270 -1z"/>
<path d="M40720 4710 c-275 -34 -491 -112 -708 -256 -362 -241 -610 -633 -701
-1107 -74 -383 -50 -811 66 -1171 212 -660 674 -1040 1383 -1137 127 -17 434
-15 565 5 152 23 339 70 470 118 240 87 502 230 653 357 l62 53 0 714 0 714
-755 0 -755 0 0 -300 0 -300 400 0 400 0 0 -229 0 -229 -73 -50 c-151 -105
-389 -205 -552 -233 -104 -18 -315 -15 -410 6 -177 38 -306 106 -434 229 -221
214 -324 502 -338 941 -19 598 156 980 532 1166 157 77 234 93 455 94 216 0
262 -9 410 -82 79 -38 110 -61 181 -133 74 -73 94 -101 138 -190 28 -58 51
-113 51 -123 0 -10 6 -20 13 -23 7 -2 165 25 351 61 185 36 339 65 341 65 6 0
-33 140 -60 212 -70 184 -158 322 -290 454 -194 195 -413 300 -755 360 -102
18 -528 27 -640 14z"/>
<path d="M32380 4345 l0 -315 335 0 335 0 0 315 0 315 -335 0 -335 0 0 -315z"/>
<path d="M9303 4387 l-323 -192 0 -257 0 -257 -152 -3 -153 -3 -3 -272 -2
-273 155 0 155 0 0 -727 c0 -871 5 -936 84 -1098 56 -114 154 -190 311 -242
75 -25 92 -27 265 -28 143 0 204 4 270 18 91 20 218 61 234 77 7 7 -39 518
-48 527 -2 2 -36 -9 -77 -23 -49 -17 -104 -28 -164 -31 -83 -5 -93 -3 -124 19
-19 12 -44 39 -55 58 -21 34 -21 49 -24 743 l-3 707 226 0 225 0 -2 273 -3
272 -222 3 -223 2 0 450 c0 354 -3 450 -12 449 -7 0 -158 -86 -335 -192z"/>
<path d="M34085 4387 l-320 -193 -3 -257 -2 -256 -153 -3 -152 -3 -3 -272 -2
-273 154 0 155 0 4 -782 c3 -758 4 -786 25 -878 26 -114 77 -221 129 -272 54
-53 146 -105 238 -135 75 -25 92 -27 265 -28 143 0 204 4 270 18 92 20 219 62
234 77 6 6 -1 103 -18 267 -15 142 -29 259 -30 260 -2 2 -36 -9 -77 -23 -49
-17 -104 -28 -164 -31 -83 -5 -93 -3 -124 19 -19 12 -44 39 -55 58 -21 34 -21
49 -24 743 l-3 707 226 0 225 0 0 275 0 275 -225 0 -225 0 0 450 c0 354 -3
450 -12 450 -7 -1 -157 -87 -333 -193z"/>
<path d="M7035 3729 c-257 -14 -470 -78 -616 -184 -92 -68 -187 -181 -234
-279 -59 -124 -70 -177 -70 -331 1 -145 16 -217 67 -320 66 -134 188 -250 334
-319 153 -73 438 -161 809 -251 218 -52 284 -76 323 -116 61 -63 62 -184 3
-266 -34 -48 -124 -97 -217 -119 -84 -21 -292 -23 -379 -5 -177 38 -309 165
-357 346 -11 42 -15 46 -38 42 -14 -3 -162 -27 -330 -53 -168 -26 -307 -48
-309 -50 -9 -7 44 -152 82 -228 137 -266 369 -442 686 -521 155 -38 271 -48
499 -42 284 8 433 40 616 136 204 106 360 288 426 496 31 96 38 299 16 405
-34 158 -120 289 -250 379 -155 107 -310 164 -746 276 -542 139 -620 177 -620
305 0 50 19 89 59 123 115 96 476 118 654 39 82 -37 166 -132 197 -225 11 -34
15 -38 38 -33 15 3 149 28 297 56 149 28 277 53 286 56 15 4 15 9 3 52 -22 76
-98 222 -154 295 -191 253 -548 364 -1075 336z"/>
<path d="M11460 3733 c-294 -16 -544 -131 -743 -343 -235 -250 -346 -577 -347
-1020 -1 -754 349 -1230 972 -1325 114 -18 344 -20 454 -4 299 41 552 191 716
424 82 116 179 322 155 330 -8 4 -643 115 -653 115 0 0 -6 -19 -13 -42 -74
-247 -264 -364 -516 -317 -237 44 -404 259 -431 557 l-7 72 833 0 833 0 -6
193 c-15 486 -130 809 -377 1056 -167 166 -426 281 -672 296 -51 3 -104 7
-118 8 -14 1 -50 1 -80 0z m191 -533 c86 -16 168 -62 236 -133 98 -102 147
-221 160 -387 l6 -80 -497 0 -496 0 0 39 c0 77 31 214 65 288 41 89 142 196
220 233 96 46 200 60 306 40z"/>
<path d="M14525 3729 c-238 -20 -458 -132 -631 -323 l-69 -77 -5 173 -5 173
-302 3 -303 2 0 -1300 0 -1300 330 0 330 0 0 693 c0 886 9 1012 86 1173 94
198 328 306 536 248 68 -19 138 -76 168 -135 55 -107 54 -81 60 -1064 l5 -910
332 -3 331 -2 5 777 c5 777 7 827 42 968 37 147 126 267 242 328 186 97 393
63 483 -79 71 -112 80 -248 80 -1221 l0 -773 330 0 331 0 -4 988 c-3 960 -4
990 -24 1079 -85 369 -374 584 -787 584 -263 0 -469 -93 -679 -305 -54 -54
-99 -97 -100 -95 -2 2 -19 29 -38 59 -160 245 -422 364 -744 339z"/>
<path d="M22998 3729 c-381 -30 -711 -258 -891 -614 -111 -222 -166 -513 -154
-824 10 -255 53 -451 141 -636 156 -330 397 -519 766 -600 103 -23 395 -31
513 -15 324 44 575 199 745 459 48 74 118 216 136 277 6 19 -7 23 -306 74
-172 30 -321 54 -331 54 -14 1 -25 -15 -41 -60 -46 -124 -105 -204 -186 -248
-242 -132 -552 -23 -679 238 -39 79 -64 174 -76 289 l-6 57 837 0 837 0 -6
158 c-18 438 -104 738 -277 972 -179 240 -475 397 -785 416 -49 3 -101 6 -115
8 -14 1 -69 -1 -122 -5z m233 -529 c226 -42 385 -256 401 -535 l3 -60 -495 0
-495 0 3 70 c17 351 274 583 583 525z"/>
<path d="M25790 3728 c-305 -20 -578 -146 -766 -351 -223 -244 -327 -560 -327
-997 0 -212 15 -337 58 -497 118 -432 418 -727 837 -824 133 -31 402 -38 553
-14 256 40 441 128 596 284 86 87 138 160 198 279 42 84 104 256 116 322 l6
35 -313 54 c-172 30 -318 56 -324 58 -7 3 -20 -31 -33 -84 -57 -225 -170 -355
-343 -393 -82 -18 -238 -8 -311 20 -124 47 -237 163 -287 297 -51 135 -64 231
-64 488 -1 257 7 323 52 450 59 167 169 271 337 320 88 26 259 17 339 -17 122
-52 215 -170 247 -313 7 -30 15 -55 19 -55 18 0 642 118 646 122 2 3 -10 45
-27 94 -141 399 -387 621 -772 699 -69 14 -107 18 -277 28 -25 2 -97 0 -160
-5z"/>
<path d="M31588 3728 c-174 -20 -292 -106 -441 -323 l-62 -90 -3 183 -2 182
-305 0 -305 0 0 -1300 0 -1300 330 0 330 0 0 498 c0 506 11 861 31 1025 21
177 84 342 158 416 122 122 333 129 525 16 40 -24 44 -24 51 -8 18 47 195 567
195 575 0 16 -162 87 -245 107 -97 24 -169 29 -257 19z"/>
<path d="M44255 3729 c-178 -17 -313 -116 -456 -333 l-59 -90 0 187 0 187
-307 -2 -308 -3 0 -1295 0 -1295 330 0 330 0 6 665 c7 772 18 912 80 1085 65
178 155 258 315 280 89 12 220 -22 317 -83 22 -13 41 -22 43 -20 2 3 49 136
104 298 80 231 98 295 88 302 -39 28 -170 82 -236 98 -90 22 -164 28 -247 19z"/>
<path d="M46065 3729 c-388 -26 -741 -222 -937 -519 -184 -280 -261 -581 -238
-930 42 -625 335 -1022 876 -1189 168 -52 265 -64 464 -58 182 6 297 26 428
77 415 161 716 540 798 1005 21 121 24 390 5 512 -63 423 -308 775 -671 967
-201 105 -454 153 -725 135z m328 -594 c177 -72 314 -242 368 -457 27 -106 37
-368 20 -489 -29 -193 -84 -312 -201 -430 -123 -125 -225 -169 -392 -169 -176
0 -280 42 -404 165 -64 63 -90 98 -123 165 -73 150 -85 213 -85 460 0 247 12
310 85 460 33 67 59 102 123 165 132 131 222 166 416 161 110 -2 133 -6 193
-31z"/>
<path d="M52255 3728 c-250 -21 -495 -161 -651 -372 l-44 -58 0 191 0 191
-310 0 -310 0 0 -1790 0 -1790 335 0 335 0 0 646 0 647 80 -76 c144 -138 261
-212 410 -259 66 -20 95 -23 240 -23 142 0 176 3 243 23 163 47 298 126 421
247 250 245 369 557 383 1010 15 470 -85 813 -314 1077 -214 247 -498 363
-818 336z m30 -552 c84 -22 157 -66 225 -135 80 -81 131 -175 168 -309 25 -92
26 -109 26 -347 1 -224 -2 -260 -22 -345 -12 -52 -41 -133 -63 -180 -126 -256
-405 -358 -658 -239 -92 42 -213 167 -263 269 -72 149 -104 347 -95 590 10
265 68 431 197 560 69 69 148 115 233 136 70 17 190 17 252 0z"/>
<path d="M3248 3675 c-3 -3 210 -588 472 -1301 l477 -1296 -18 -58 c-60 -193
-173 -352 -286 -402 -80 -35 -206 -45 -356 -26 -72 9 -132 16 -133 15 -4 -6
58 -523 64 -529 4 -4 50 -15 102 -24 133 -24 395 -24 514 0 330 65 503 215
649 567 24 57 65 165 92 239 26 74 260 735 521 1467 261 733 474 1337 474
1343 0 7 -110 9 -342 8 l-342 -3 -290 -912 c-160 -502 -293 -913 -296 -913 -3
0 -137 406 -299 903 -162 496 -299 908 -304 915 -7 9 -90 12 -352 12 -188 0
-344 -2 -347 -5z"/>
<path d="M27523 2738 c3 -1028 3 -1029 63 -1206 86 -257 290 -427 584 -487
114 -23 321 -17 434 14 207 56 419 193 537 349 l49 65 0 -197 0 -196 308 2
307 3 0 1295 0 1295 -330 0 -330 0 -6 -775 c-4 -519 -10 -806 -18 -869 -20
-156 -62 -246 -158 -337 -182 -175 -493 -192 -646 -36 -56 58 -82 108 -104
198 -14 60 -17 180 -22 944 l-6 875 -333 3 -333 2 4 -942z"/>
<path d="M32380 2380 l0 -1300 333 2 332 3 0 1295 0 1295 -332 3 -333 2 0
-1300z"/>
<path d="M35032 3663 c3 -10 218 -596 478 -1303 l473 -1285 -28 -84 c-32 -94
-101 -218 -157 -285 -83 -98 -234 -139 -436 -118 -65 7 -129 15 -144 18 -34 8
-35 28 1 -286 l27 -244 59 -13 c129 -26 316 -37 441 -24 389 39 597 187 754
538 26 59 109 281 184 493 75 212 313 882 530 1490 216 608 392 1108 389 1113
-2 4 -155 7 -339 7 l-335 0 -13 -32 c-8 -18 -141 -433 -297 -921 -156 -489
-286 -882 -288 -875 -3 7 -138 420 -301 918 l-296 905 -353 3 c-333 2 -353 1
-349 -15z"/>
<path d="M47984 3666 c-3 -8 -3 -427 -1 -933 5 -965 5 -973 51 -1153 56 -216
219 -399 434 -486 109 -44 173 -56 312 -61 159 -6 253 9 390 60 168 64 342
191 437 319 l38 53 5 -190 5 -190 308 -3 307 -2 0 1300 0 1300 -332 -2 -333
-3 -6 -805 c-6 -879 -8 -914 -65 -1035 -75 -159 -249 -270 -439 -282 -238 -16
-391 113 -426 357 -9 58 -14 349 -18 925 l-6 840 -328 3 c-275 2 -328 0 -333
-12z"/>
</g>
</svg>